<svg width="67" height="67" viewBox="0 0 67 67" fill="none" xmlns="http://www.w3.org/2000/svg">
<path d="M67 0H0V67H67V0Z" fill="#FF00B8"/>
<path d="M10.926 47L19.2599 52.5559L10 59.2231H20.1859" stroke="black" stroke-width="2.95391" stroke-linecap="square" stroke-linejoin="bevel"/>
<path d="M53.0555 36.7703V42.6863H50.0975V27H56.2376C57.0443 27 57.7465 27.1345 58.344 27.4034C58.9416 27.6573 59.4346 28.0009 59.823 28.4342C60.2264 28.8525 60.5252 29.338 60.7194 29.8908C60.9285 30.4286 61.0331 30.9813 61.0331 31.549V32.0868C61.0331 32.6695 60.9285 33.2446 60.7194 33.8123C60.5252 34.3651 60.2264 34.8656 59.823 35.3137C59.4346 35.747 58.9416 36.098 58.344 36.367C57.7465 36.6359 57.0443 36.7703 56.2376 36.7703H53.0555ZM53.0555 33.9468H55.9463C56.6036 33.9468 57.119 33.7675 57.4925 33.409C57.8809 33.0504 58.0751 32.5873 58.0751 32.0196V31.7507C58.0751 31.183 57.8809 30.7199 57.4925 30.3613C57.119 30.0028 56.6036 29.8235 55.9463 29.8235H53.0555V33.9468Z" fill="black"/>
<path d="M44.4213 41.2073H44.8247V27H47.7826V42.6863H42.0011L40.1636 28.479H39.7602V42.6863H36.8022V27H42.5838L44.4213 41.2073Z" fill="black"/>
<path d="M24 27H34.4874V29.8235H30.7227V39.8628H34.4874V42.6863H24V39.8628H27.7647V29.8235H24V27Z" fill="black"/>
<path d="M50.8876 49.5714H54.1817V45H57.0052V49.5714H61.0164V52.2605H57.0052V57.3249C57.0052 57.7731 57.2069 57.9972 57.6103 57.9972H60.6131V60.6863H55.9072C55.3992 60.6863 54.981 60.5219 54.6523 60.1933C54.3386 59.8646 54.1817 59.4463 54.1817 58.9384V52.2605H50.8876V49.5714Z" fill="black"/>
<path d="M41.088 56.0476C41.1029 56.3763 41.1776 56.6825 41.3121 56.9664C41.4615 57.2353 41.6557 57.4743 41.8947 57.6835C42.1487 57.8777 42.4325 58.0345 42.7462 58.1541C43.0749 58.2586 43.4185 58.3109 43.777 58.3109C44.4792 58.3109 45.017 58.1914 45.3905 57.9524C45.764 57.6984 46.0329 57.3996 46.1972 57.056L48.6174 58.4006C48.4829 58.6844 48.2962 58.9832 48.0572 59.2969C47.8181 59.5957 47.5044 59.8721 47.116 60.1261C46.7425 60.38 46.2794 60.5892 45.7266 60.7535C45.1888 60.9178 44.5539 61 43.8219 61C42.9853 61 42.2234 60.8655 41.5362 60.5966C40.8489 60.3277 40.2514 59.9393 39.7434 59.4314C39.2504 58.9234 38.862 58.3035 38.5782 57.5714C38.3093 56.8394 38.1748 56.0103 38.1748 55.084V54.9496C38.1748 54.098 38.3167 53.3212 38.6006 52.619C38.8994 51.9169 39.3027 51.3193 39.8107 50.8263C40.3186 50.3333 40.9087 49.9524 41.581 49.6835C42.2682 49.3996 43.0002 49.2577 43.777 49.2577C44.7332 49.2577 45.5548 49.4295 46.242 49.7731C46.9292 50.1018 47.4969 50.5275 47.9451 51.0504C48.3933 51.5584 48.722 52.126 48.9311 52.7535C49.1403 53.366 49.2448 53.9636 49.2448 54.5462V56.0476H41.088ZM43.7546 51.8123C43.0375 51.8123 42.4549 51.9991 42.0067 52.3725C41.5586 52.7311 41.2672 53.1494 41.1328 53.6274H46.3765C46.2869 53.1046 46.003 52.6713 45.525 52.3277C45.0618 51.9841 44.4717 51.8123 43.7546 51.8123Z" fill="black"/>
<path d="M28.8235 60.6863H26V49.5714H28.8235V51.2297H29.2269C29.4809 50.6022 29.8917 50.1167 30.4594 49.7731C31.0271 49.4295 31.6919 49.2577 32.4538 49.2577C32.9916 49.2577 33.4921 49.3473 33.9552 49.5266C34.4332 49.6909 34.8515 49.9524 35.2101 50.3109C35.5686 50.6695 35.845 51.1251 36.0392 51.6779C36.2484 52.2306 36.3529 52.888 36.3529 53.6499V60.6863H33.5294V54.3669C33.5294 53.5752 33.3352 52.9552 32.9468 52.507C32.5733 52.0439 32.028 51.8123 31.3109 51.8123C30.4743 51.8123 29.8469 52.0962 29.4286 52.6639C29.0252 53.2166 28.8235 53.9636 28.8235 54.9048V60.6863Z" fill="black"/>
</svg>
