<svg width="67" height="67" viewBox="0 0 67 67" fill="none" xmlns="http://www.w3.org/2000/svg">
<path d="M67 0H0V67H67V0Z" fill="black"/>
<path d="M10.4667 48.2777L20.3333 53.2122L9 60.0777H21.1" stroke="#FF00B8" stroke-width="1.46667" stroke-linecap="square" stroke-linejoin="bevel"/>
<path d="M52.2001 35.6231V42H50.3402V26.5006H55.8757C56.6728 26.5006 57.3666 26.6187 57.957 26.8549C58.5475 27.0763 59.0346 27.3789 59.4184 27.7627C59.817 28.1465 60.1122 28.5967 60.3041 29.1134C60.5107 29.6153 60.6141 30.1467 60.6141 30.7076V31.3719C60.6141 31.9328 60.5107 32.4716 60.3041 32.9882C60.1122 33.5049 59.817 33.9625 59.4184 34.361C59.0199 34.7448 58.5253 35.0548 57.9349 35.291C57.3444 35.5124 56.658 35.6231 55.8757 35.6231H52.2001ZM52.2001 33.896H55.6543C57.7209 33.896 58.7541 33.0104 58.7541 31.239V30.8405C58.7541 30.0581 58.4958 29.4308 57.9792 28.9584C57.4773 28.4713 56.7023 28.2277 55.6543 28.2277H52.2001V33.896Z" fill="white"/>
<path d="M46.038 41.2029H46.3037V26.5006H48.1636V42H44.4438L39.9711 27.2978H39.7054V42H37.8455V26.5006H41.5653L46.038 41.2029Z" fill="white"/>
<path d="M25.8599 26.5006H35.6909V28.2277H31.7053V40.2729H35.6909V42H25.8599V40.2729H29.8454V28.2277H25.8599V26.5006Z" fill="white"/>
<path d="M48.901 50.0176H52.3551V45.5006H54.0822V50.0176H58.3335V51.6118H54.0822V58.7415C54.0822 59.1844 54.2815 59.4058 54.68 59.4058H57.8021V61H54.0601C53.5582 61 53.1449 60.8376 52.8201 60.5129C52.5101 60.1881 52.3551 59.7748 52.3551 59.2729V51.6118H48.901V50.0176Z" fill="white"/>
<path d="M39.4175 56.0402C39.4618 57.1325 39.8013 58.0108 40.436 58.6751C41.0708 59.3394 41.9564 59.6715 43.0931 59.6715C43.6097 59.6715 44.0599 59.6124 44.4437 59.4943C44.8275 59.3763 45.1523 59.2139 45.418 59.0072C45.6984 58.8006 45.9198 58.5644 46.0822 58.2987C46.2594 58.0182 46.3996 57.723 46.5029 57.413L48.1414 57.8558C47.8314 58.8744 47.2557 59.7084 46.4144 60.3579C45.5877 60.9926 44.4659 61.31 43.0488 61.31C42.2664 61.31 41.5431 61.1771 40.8789 60.9114C40.2294 60.631 39.6684 60.2398 39.1961 59.7379C38.7237 59.236 38.3547 58.6382 38.089 57.9444C37.8233 57.2506 37.6904 56.483 37.6904 55.6417V55.1102C37.6904 54.3427 37.8233 53.6267 38.089 52.9625C38.3694 52.2982 38.7532 51.7299 39.2404 51.2575C39.7275 50.7704 40.2958 50.394 40.9453 50.1283C41.6096 49.8478 42.3255 49.7076 43.0931 49.7076C43.9935 49.7076 44.7685 49.8774 45.418 50.2169C46.0822 50.5416 46.621 50.9476 47.0343 51.4347C47.4624 51.9218 47.7724 52.4532 47.9643 53.0289C48.1709 53.6046 48.2743 54.136 48.2743 54.6231V56.0402H39.4175ZM43.0931 51.3461C42.6059 51.3461 42.1483 51.4273 41.7203 51.5897C41.3069 51.7373 40.9379 51.9513 40.6132 52.2318C40.3032 52.5123 40.0449 52.8444 39.8382 53.2282C39.6463 53.5972 39.5208 54.0031 39.4618 54.446H46.5472C46.5177 53.9736 46.3996 53.5455 46.1929 53.1618C46.001 52.778 45.7427 52.4532 45.418 52.1875C45.108 51.9218 44.7463 51.7151 44.333 51.5675C43.9345 51.4199 43.5211 51.3461 43.0931 51.3461Z" fill="white"/>
<path d="M27.6535 61H25.9264V50.0176H27.6535V51.8775H27.9192C28.5982 50.4309 29.7791 49.7076 31.4619 49.7076C32.7313 49.7076 33.7425 50.1062 34.4953 50.9033C35.2481 51.6856 35.6246 52.8665 35.6246 54.446V61H33.8975V54.8003C33.8975 53.6489 33.6392 52.7853 33.1225 52.2097C32.6059 51.634 31.9047 51.3461 31.019 51.3461C29.971 51.3461 29.1444 51.7078 28.5391 52.4311C27.9487 53.1396 27.6535 54.0917 27.6535 55.2874V61Z" fill="white"/>
</svg>
