<svg width="84" height="25" viewBox="0 0 84 25" fill="none" xmlns="http://www.w3.org/2000/svg">
<rect width="84" height="25" fill="black"/>
<path d="M20.2128 7.89375H26.623V9.01987H24.0243V16.8739H26.623V18H20.2128V16.8739H22.8115V9.01987H20.2128V7.89375ZM33.8028 17.4802H33.9761V7.89375H35.1888V18H32.7633L29.847 8.4135H29.6737V18H28.461V7.89375H30.8865L33.8028 17.4802ZM38.254 13.842V18H37.0412V7.89375H40.6506C41.1704 7.89375 41.6227 7.97075 42.0077 8.12475C42.3927 8.26912 42.7104 8.46644 42.9606 8.71669C43.2205 8.96694 43.413 9.2605 43.5381 9.59737C43.6729 9.92462 43.7402 10.2711 43.7402 10.6369V11.07C43.7402 11.4357 43.6729 11.7871 43.5381 12.1239C43.413 12.4608 43.2205 12.7592 42.9606 13.0191C42.7007 13.2693 42.3783 13.4714 41.9933 13.6254C41.6083 13.7698 41.1607 13.842 40.6506 13.842H38.254ZM38.254 12.7159H40.5062C41.8537 12.7159 42.5275 12.1384 42.5275 10.9834V10.7235C42.5275 10.2134 42.359 9.80431 42.0222 9.49631C41.6949 9.17869 41.1896 9.01987 40.5062 9.01987H38.254V12.7159ZM45.0296 13.7265H49.3608V14.766H45.0296V13.7265ZM52.5559 18H51.4298V10.839H52.5559V12.0517H52.7292C53.1719 11.1085 53.9419 10.6369 55.0392 10.6369C55.8669 10.6369 56.5262 10.8967 57.0171 11.4165C57.508 11.9266 57.7534 12.6966 57.7534 13.7265V18H56.6273V13.9575C56.6273 13.2067 56.4588 12.6437 56.122 12.2683C55.7851 11.8929 55.3279 11.7052 54.7504 11.7052C54.067 11.7052 53.528 11.9411 53.1334 12.4127C52.7484 12.8747 52.5559 13.4955 52.5559 14.2751V18ZM60.371 14.766C60.3999 15.4782 60.6212 16.0509 61.0351 16.4841C61.449 16.9172 62.0265 17.1337 62.7676 17.1337C63.1045 17.1337 63.3981 17.0952 63.6483 17.0182C63.8986 16.9412 64.1103 16.8354 64.2836 16.7006C64.4664 16.5659 64.6108 16.4119 64.7167 16.2386C64.8322 16.0557 64.9236 15.8632 64.991 15.6611L66.0594 15.9499C65.8572 16.614 65.4819 17.1578 64.9332 17.5813C64.3942 17.9952 63.6627 18.2021 62.7387 18.2021C62.2286 18.2021 61.757 18.1155 61.3239 17.9422C60.9004 17.7594 60.5346 17.5043 60.2266 17.1771C59.9186 16.8498 59.678 16.46 59.5047 16.0076C59.3315 15.5552 59.2449 15.0547 59.2449 14.5061V14.1596C59.2449 13.6591 59.3315 13.1923 59.5047 12.7592C59.6876 12.3261 59.9379 11.9555 60.2555 11.6475C60.5731 11.3299 60.9437 11.0844 61.3672 10.9112C61.8003 10.7283 62.2671 10.6369 62.7676 10.6369C63.3547 10.6369 63.8601 10.7476 64.2836 10.9689C64.7167 11.1807 65.068 11.4454 65.3375 11.763C65.6166 12.0806 65.8187 12.4271 65.9439 12.8025C66.0786 13.1779 66.146 13.5244 66.146 13.842V14.766H60.371ZM62.7676 11.7052C62.45 11.7052 62.1516 11.7582 61.8725 11.8641C61.603 11.9603 61.3624 12.0999 61.1506 12.2827C60.9485 12.4656 60.7801 12.6822 60.6453 12.9324C60.5202 13.1731 60.4384 13.4377 60.3999 13.7265H65.0199C65.0006 13.4185 64.9236 13.1394 64.7889 12.8891C64.6637 12.6389 64.4953 12.4271 64.2836 12.2539C64.0814 12.0806 63.8456 11.9459 63.5761 11.8496C63.3162 11.7534 63.0467 11.7052 62.7676 11.7052ZM67.4209 10.839H69.6731V7.89375H70.7993V10.839H73.5713V11.8785H70.7993V16.5274C70.7993 16.8161 70.9292 16.9605 71.1891 16.9605H73.2248V18H70.7848C70.4576 18 70.1881 17.8941 69.9763 17.6824C69.7742 17.4706 69.6731 17.2011 69.6731 16.8739V11.8785H67.4209V10.839Z" fill="#09FF89"/>
<path d="M7.96989 9L14.4946 12.2632L7 16.8032H15.0016" stroke="#09FF89" stroke-width="0.969893" stroke-linecap="square" stroke-linejoin="bevel"/>
</svg>
