<svg width="102" height="17" viewBox="0 0 102 17" fill="none" xmlns="http://www.w3.org/2000/svg">
<path d="M2.92636 3.03718L11.2603 8.59312L2.00037 15.2603L12.1863 15.2603" stroke="#FF00B8" stroke-width="2.95391" stroke-linecap="square" stroke-linejoin="bevel"/>
<path d="M91.7057 5.57143H94.9998V1H97.8233V5.57143H101.835V8.26051H97.8233V13.3249C97.8233 13.7731 98.025 13.9972 98.4284 13.9972H101.431V16.6863H96.7253C96.2174 16.6863 95.7991 16.5219 95.4704 16.1933C95.1567 15.8646 94.9998 15.4463 94.9998 14.9384V8.26051H91.7057V5.57143Z" fill="#FF00B8"/>
<path d="M81.9061 12.0476C81.921 12.3763 81.9957 12.6825 82.1302 12.9664C82.2796 13.2353 82.4738 13.4743 82.7128 13.6835C82.9668 13.8777 83.2506 14.0345 83.5643 14.1541C83.893 14.2586 84.2366 14.3109 84.5952 14.3109C85.2973 14.3109 85.8351 14.1914 86.2086 13.9524C86.5821 13.6984 86.851 13.3996 87.0153 13.056L89.4355 14.4006C89.301 14.6844 89.1143 14.9832 88.8753 15.2969C88.6363 15.5957 88.3225 15.8721 87.9341 16.1261C87.5606 16.38 87.0975 16.5892 86.5447 16.7535C86.0069 16.9178 85.372 17 84.64 17C83.8034 17 83.0415 16.8655 82.3543 16.5966C81.6671 16.3277 81.0695 15.9393 80.5615 15.4314C80.0686 14.9234 79.6801 14.3035 79.3963 13.5714C79.1274 12.8394 78.9929 12.0103 78.9929 11.084V10.9496C78.9929 10.098 79.1348 9.32119 79.4187 8.61904C79.7175 7.9169 80.1208 7.31932 80.6288 6.82633C81.1367 6.33333 81.7268 5.95238 82.3991 5.68347C83.0863 5.39962 83.8183 5.2577 84.5952 5.2577C85.5513 5.2577 86.3729 5.4295 87.0601 5.7731C87.7474 6.10177 88.3151 6.52754 88.7632 7.05042C89.2114 7.55835 89.5401 8.12605 89.7492 8.7535C89.9584 9.36601 90.063 9.96358 90.063 10.5462V12.0476H81.9061ZM84.5728 7.81232C83.8557 7.81232 83.273 7.99906 82.8249 8.37255C82.3767 8.73109 82.0854 9.14939 81.9509 9.62745H87.1946C87.105 9.10457 86.8211 8.67133 86.3431 8.32773C85.8799 7.98412 85.2898 7.81232 84.5728 7.81232Z" fill="#FF00B8"/>
<path d="M69.6416 16.6863H66.8181V5.57142H69.6416V7.22969H70.045C70.299 6.60224 70.7098 6.11671 71.2775 5.7731C71.8452 5.4295 72.51 5.2577 73.2719 5.2577C73.8097 5.2577 74.3102 5.34733 74.7733 5.52661C75.2514 5.69094 75.6697 5.95238 76.0282 6.31092C76.3867 6.66946 76.6631 7.12511 76.8573 7.67787C77.0665 8.23062 77.1711 8.88795 77.1711 9.64986V16.6863H74.3475V10.3669C74.3475 9.57516 74.1533 8.95518 73.7649 8.507C73.3914 8.04388 72.8461 7.81232 72.129 7.81232C71.2924 7.81232 70.665 8.09617 70.2467 8.66386C69.8433 9.21662 69.6416 9.96358 69.6416 10.9048V16.6863Z" fill="#FF00B8"/>
<path d="M56.9513 9.24648H63.9429V11.8011H56.9513V9.24648Z" fill="#FF00B8"/>
<path d="M47.3534 10.7703V16.6863H44.3954V1H50.5354C51.3422 1 52.0443 1.13445 52.6419 1.40336C53.2395 1.65733 53.7325 2.00094 54.1209 2.43418C54.5242 2.85248 54.823 3.338 55.0172 3.89076C55.2264 4.42857 55.331 4.98133 55.331 5.54902V6.08684C55.331 6.66947 55.2264 7.24463 55.0172 7.81233C54.823 8.36508 54.5242 8.86555 54.1209 9.31373C53.7325 9.74697 53.2395 10.098 52.6419 10.367C52.0443 10.6359 51.3422 10.7703 50.5354 10.7703H47.3534ZM47.3534 7.94678H50.2441C50.9015 7.94678 51.4169 7.76751 51.7903 7.40897C52.1788 7.05042 52.373 6.5873 52.373 6.01961V5.7507C52.373 5.18301 52.1788 4.71989 51.7903 4.36135C51.4169 4.0028 50.9015 3.82353 50.2441 3.82353H47.3534V7.94678Z" fill="#FF00B8"/>
<path d="M38.7191 15.2073H39.1225V1H42.0805V16.6863H36.299L34.4614 2.47899H34.0581V16.6863H31.1001V1H36.8816L38.7191 15.2073Z" fill="#FF00B8"/>
<path d="M18.2979 1H28.7852V3.82353H25.0205V13.8628H28.7852V16.6863H18.2979V13.8628H22.0626V3.82353H18.2979V1Z" fill="#FF00B8"/>
</svg>
