<svg width="102" height="17" viewBox="0 0 102 17" fill="none" xmlns="http://www.w3.org/2000/svg">
<path d="M2.92599 3.03718L11.2599 8.59312L2 15.2603L12.1859 15.2603" stroke="black" stroke-width="2.95391" stroke-linecap="square" stroke-linejoin="bevel"/>
<path d="M91.7053 5.57143H94.9994V1H97.823V5.57143H101.834V8.26051H97.823V13.3249C97.823 13.7731 98.0247 13.9972 98.428 13.9972H101.431V16.6863H96.7249C96.217 16.6863 95.7987 16.5219 95.47 16.1933C95.1563 15.8646 94.9994 15.4463 94.9994 14.9384V8.26051H91.7053V5.57143Z" fill="black"/>
<path d="M81.9057 12.0476C81.9207 12.3763 81.9954 12.6825 82.1298 12.9664C82.2792 13.2353 82.4734 13.4743 82.7124 13.6835C82.9664 13.8777 83.2503 14.0345 83.564 14.1541C83.8926 14.2586 84.2363 14.3109 84.5948 14.3109C85.2969 14.3109 85.8348 14.1914 86.2082 13.9524C86.5817 13.6984 86.8506 13.3996 87.015 13.056L89.4351 14.4006C89.3007 14.6844 89.1139 14.9832 88.8749 15.2969C88.6359 15.5957 88.3222 15.8721 87.9337 16.126C87.5603 16.38 87.0971 16.5892 86.5444 16.7535C86.0066 16.9178 85.3716 17 84.6396 17C83.803 17 83.0411 16.8655 82.3539 16.5966C81.6667 16.3277 81.0691 15.9393 80.5612 15.4314C80.0682 14.9234 79.6798 14.3035 79.3959 13.5714C79.127 12.8394 78.9926 12.0103 78.9926 11.084V10.9496C78.9926 10.098 79.1345 9.32119 79.4183 8.61904C79.7171 7.9169 80.1205 7.31932 80.6284 6.82633C81.1363 6.33333 81.7264 5.95238 82.3987 5.68347C83.0859 5.39962 83.818 5.2577 84.5948 5.2577C85.5509 5.2577 86.3726 5.4295 87.0598 5.7731C87.747 6.10177 88.3147 6.52754 88.7629 7.05042C89.211 7.55835 89.5397 8.12605 89.7489 8.7535C89.958 9.36601 90.0626 9.96358 90.0626 10.5462V12.0476H81.9057ZM84.5724 7.81232C83.8553 7.81232 83.2727 7.99906 82.8245 8.37254C82.3763 8.73109 82.085 9.14939 81.9505 9.62745H87.1942C87.1046 9.10457 86.8208 8.67133 86.3427 8.32773C85.8796 7.98412 85.2895 7.81232 84.5724 7.81232Z" fill="black"/>
<path d="M69.6413 16.6863H66.8177V5.57142H69.6413V7.22969H70.0446C70.2986 6.60224 70.7094 6.11671 71.2771 5.7731C71.8448 5.4295 72.5096 5.2577 73.2715 5.2577C73.8094 5.2577 74.3098 5.34733 74.7729 5.52661C75.251 5.69094 75.6693 5.95238 76.0278 6.31092C76.3864 6.66946 76.6628 7.12511 76.857 7.67787C77.0661 8.23062 77.1707 8.88795 77.1707 9.64986V16.6863H74.3472V10.3669C74.3472 9.57516 74.153 8.95518 73.7645 8.507C73.391 8.04388 72.8458 7.81232 72.1287 7.81232C71.2921 7.81232 70.6646 8.09617 70.2463 8.66386C69.843 9.21662 69.6413 9.96358 69.6413 10.9048V16.6863Z" fill="black"/>
<path d="M56.9509 9.24648H63.9425V11.8011H56.9509V9.24648Z" fill="black"/>
<path d="M47.353 10.7703V16.6863H44.395V1H50.5351C51.3418 1 52.0439 1.13445 52.6415 1.40336C53.2391 1.65733 53.7321 2.00094 54.1205 2.43418C54.5239 2.85248 54.8227 3.338 55.0169 3.89076C55.226 4.42857 55.3306 4.98133 55.3306 5.54902V6.08684C55.3306 6.66947 55.226 7.24463 55.0169 7.81233C54.8227 8.36508 54.5239 8.86555 54.1205 9.31373C53.7321 9.74697 53.2391 10.098 52.6415 10.367C52.0439 10.6359 51.3418 10.7703 50.5351 10.7703H47.353ZM47.353 7.94678H50.2438C50.9011 7.94678 51.4165 7.76751 51.79 7.40897C52.1784 7.05042 52.3726 6.58731 52.3726 6.01961V5.7507C52.3726 5.18301 52.1784 4.71989 51.79 4.36135C51.4165 4.0028 50.9011 3.82353 50.2438 3.82353H47.353V7.94678Z" fill="black"/>
<path d="M38.7188 15.2073H39.1221V1H42.0801V16.6863H36.2986L34.4611 2.47899H34.0577V16.6863H31.0997V1H36.8812L38.7188 15.2073Z" fill="black"/>
<path d="M18.2975 1H28.7849V3.82353H25.0202V13.8628H28.7849V16.6863H18.2975V13.8628H22.0622V3.82353H18.2975V1Z" fill="black"/>
</svg>
