<svg width="32" height="35" viewBox="0 0 32 35" fill="none" xmlns="http://www.w3.org/2000/svg">
<path d="M22.4184 31.8731L9.17135 31.8731H5.19727L5.19727 14.32L13.1455 14.32H21.0937L26.3925 14.32L26.3925 31.8731H22.4184Z" fill="#FF00B8"/>
<path d="M26.3925 14.32C26.3925 26.2424 26.3925 31.8731 26.3925 31.8731H22.4184L9.17135 31.8731H5.19727L5.19727 14.32L13.1455 14.32H21.0937C21.0937 14.32 24.3232 14.32 26.3925 14.32ZM26.3925 14.32C26.3925 2.39765 21.0938 3.72238 15.7949 3.72238C11.8032 3.72238 7.81151 2.97061 6.08506 7.6965" stroke="#FF00B8" stroke-width="3.15897" stroke-linecap="square" stroke-linejoin="bevel"/>
<path d="M10.609 15.9887L21.214 23.2018L9.17126 31.8726H21.8505" stroke="black" stroke-width="3.15897" stroke-linecap="square" stroke-linejoin="bevel"/>
</svg>
