<svg width="30" height="30" viewBox="0 0 30 30" fill="none" xmlns="http://www.w3.org/2000/svg">
<path d="M14.5327 12.0901C12.7292 10.4722 12.4007 9.95953 10.3947 9.95953C7.61443 9.95953 5.3606 12.2134 5.3606 14.9936C5.3606 17.7739 7.61443 20.0277 10.3947 20.0277C11.9738 20.0277 13.5056 20.0277 14.9487 20.0277" stroke="black" stroke-width="3"/>
<path d="M15.2529 12.4624C16.1253 10.9655 17.7479 9.95953 19.6053 9.95953C22.3856 9.95953 24.6394 12.2134 24.6394 14.9936C24.6394 17.7739 22.3856 20.0277 19.6053 20.0277C18.0544 20.0277 16.6673 19.3264 15.7438 18.2235" stroke="black" stroke-width="3"/>
<path d="M13.5186 11.1795L18.3252 15.4701L12.9695 20.0405H18.869" stroke="#FF00B8" stroke-width="3" stroke-linecap="square" stroke-linejoin="bevel"/>
</svg>
