<svg width="32" height="33" viewBox="0 0 32 33" fill="none" xmlns="http://www.w3.org/2000/svg">
<rect width="31.5897" height="31.5897" transform="translate(0 0.64267)" fill="#FF00B8"/>
<path d="M15.3028 13.3734C13.4037 11.6698 13.0579 11.13 10.9455 11.13C8.01792 11.13 5.64465 13.5032 5.64465 16.4308C5.64465 19.3584 8.01792 21.7317 10.9455 21.7317C12.6083 21.7317 14.2212 21.7317 15.7408 21.7317" stroke="black" stroke-width="3.15897"/>
<path d="M16.0612 13.7655C16.9798 12.1893 18.6883 11.13 20.6442 11.13C23.5718 11.13 25.945 13.5032 25.945 16.4308C25.945 19.3584 23.5718 21.7317 20.6442 21.7317C19.0111 21.7317 17.5504 20.9932 16.5781 19.8319" stroke="black" stroke-width="3.15897"/>
<path d="M14.235 12.4146L19.2962 16.9325L13.6567 21.7451H19.8689" stroke="black" stroke-width="3.15897" stroke-linecap="square" stroke-linejoin="bevel"/>
</svg>
