<svg width="32" height="33" viewBox="0 0 32 33" fill="none" xmlns="http://www.w3.org/2000/svg">
<path d="M16.1298 13.0767C17.2852 11.0942 19.4341 9.76187 21.8941 9.76187C25.5763 9.76187 28.5613 12.7469 28.5613 16.4291C28.5613 20.1113 25.5763 23.0963 21.8941 23.0963C19.84 23.0963 18.0029 22.1674 16.7799 20.7068" stroke="#FF00B8" stroke-width="3.15897"/>
<path d="M3.02832 16.4291C3.02832 20.1113 6.01333 23.0963 9.69553 23.0963H13.1254L20.1988 17.0602L14.6 12.0624C12.696 10.329 12.1237 9.7619 9.69553 9.7619C6.01333 9.7619 3.02832 12.7469 3.02832 16.4291Z" fill="#FF00B8"/>
<path d="M14.8847 10.1993L13.7064 9.14749L11.6027 11.5041L12.7811 12.5559L14.8847 10.1993ZM20.1988 17.0602L21.2241 18.2616L21.2506 15.8818L20.1988 17.0602ZM13.1056 23.1132L12.0803 21.9117L13.1056 24.6927V23.1132ZM20.9191 24.6927H22.4986V21.5337H20.9191V24.6927ZM9.69553 21.5168C6.88566 21.5168 4.6078 19.239 4.6078 16.4291H1.44884C1.44884 20.9836 5.141 24.6758 9.69553 24.6758V21.5168ZM4.6078 16.4291C4.6078 13.6192 6.88566 11.3414 9.69553 11.3414V8.18242C5.141 8.18242 1.44884 11.8746 1.44884 16.4291H4.6078ZM9.69553 11.3414C10.7856 11.3414 11.2462 11.4701 11.6117 11.6614C12.0729 11.9029 12.5198 12.3046 13.5367 13.2304L15.6633 10.8944C14.7763 10.0869 13.985 9.33827 13.077 8.86286C12.0733 8.33732 11.0336 8.18242 9.69553 8.18242V11.3414ZM13.5367 13.2304C13.7168 13.3943 13.9113 13.571 14.1212 13.7593L16.2307 11.4078C16.0295 11.2274 15.8418 11.0569 15.6633 10.8944L13.5367 13.2304ZM15.7269 21.5168H13.1254V24.6758H15.7269V21.5168ZM13.1254 21.5168H9.69553V24.6758H13.1254V21.5168ZM12.7811 12.5559L13.5482 13.2407L15.6518 10.8841L14.8847 10.1993L12.7811 12.5559ZM13.5482 13.2407L19.1469 18.2385L21.2506 15.8818L15.6518 10.8841L13.5482 13.2407ZM19.1735 15.8587L12.1001 21.8948L14.1507 24.2978L21.2241 18.2616L19.1735 15.8587ZM12.1001 21.8948L12.0803 21.9117L14.1309 24.3147L14.1507 24.2978L12.1001 21.8948ZM13.1056 24.6927H20.9191V21.5337H13.1056V24.6927Z" fill="black"/>
</svg>
