<svg width="30" height="30" viewBox="0 0 30 30" fill="none" xmlns="http://www.w3.org/2000/svg">
<path d="M6.52405 13.5071L5.40293 12.5105L5.02405 12.9368V13.5071H6.52405ZM14.2295 4.83844L15.3116 3.79964L13.1084 3.84189L14.2295 4.83844ZM23.4761 14.4703L22.394 15.5091L24.9761 14.4703L23.4761 14.4703ZM24.9761 6.09058L24.9761 4.59058L21.9761 4.59058L21.9761 6.09058L24.9761 6.09058ZM5.02405 23.0426V24.5426H8.02405V23.0426H5.02405ZM7.64516 14.5036L15.3506 5.83499L13.1084 3.84189L5.40293 12.5105L7.64516 14.5036ZM13.1474 5.87724L22.394 15.5091L24.5582 13.4315L15.3116 3.79964L13.1474 5.87724ZM24.9761 14.4703L24.9761 6.09058L21.9761 6.09058L21.9761 14.4703L24.9761 14.4703ZM5.02405 13.5071L5.02405 23.0426H8.02405L8.02405 13.5071H5.02405Z" fill="black"/>
<path d="M7.90955 11.9382L14.2294 4.83838L23.476 14.4702L23.476 6.09052" stroke="#FF00B8" stroke-width="3" stroke-linecap="square" stroke-linejoin="bevel"/>
<path d="M6.52405 18.8046V25.1616H23.4761V18.8046" stroke="black" stroke-width="3"/>
</svg>
