<svg width="32" height="32" viewBox="0 0 32 32" fill="none" xmlns="http://www.w3.org/2000/svg">
<rect width="31.5897" height="31.5897" fill="#FF00B8"/>
<path d="M6.86975 14.2228L5.68923 13.1735L5.29027 13.6223V14.2228H6.86975ZM14.9835 5.09481L16.1229 4.00097L13.803 4.04546L14.9835 5.09481ZM24.7201 15.237L23.5806 16.3309L26.2995 15.237L24.7201 15.237ZM26.2995 6.4133L26.2995 4.83382L23.1406 4.83382L23.1406 6.4133L26.2995 6.4133ZM5.29027 24.2636V25.8431L8.44924 25.8431V24.2636H5.29027ZM8.05027 15.2722L16.164 6.14417L13.803 4.04546L5.68923 13.1735L8.05027 15.2722ZM13.8441 6.18866L23.5806 16.3309L25.8595 14.1432L16.1229 4.00097L13.8441 6.18866ZM26.2995 15.237L26.2995 6.4133L23.1406 6.4133L23.1406 15.237L26.2995 15.237ZM5.29027 14.2228L5.29027 24.2636H8.44924L8.44924 14.2228H5.29027Z" fill="black"/>
<path d="M8.32861 12.5708L14.9834 5.09478L24.7199 15.237L24.7199 6.41327" stroke="black" stroke-width="3.15897" stroke-linecap="square" stroke-linejoin="bevel"/>
<path d="M6.86975 19.8011V26.495H24.7201V19.8011" stroke="black" stroke-width="3.15897"/>
</svg>
