<svg width="32" height="32" viewBox="0 0 32 32" fill="none" xmlns="http://www.w3.org/2000/svg">
<path d="M5.04907 28.6777V20.6183V13.9219L14.9947 3.15421L26.5408 13.9219V28.6777H5.04907Z" fill="#FF00B8"/>
<path d="M5.04907 13.9021L3.55425 12.5734L3.04907 13.1417V13.9021H5.04907ZM14.818 2.91202L16.2608 1.52696L13.3232 1.5833L14.818 2.91202ZM26.5408 15.1232L25.098 16.5083L28.5408 15.1232L26.5408 15.1232ZM28.5408 4.49948L28.5408 2.49948L24.5408 2.49948L24.5408 4.49948L28.5408 4.49948ZM3.04907 25.9912L3.04907 27.9912L7.04907 27.9912V25.9912H3.04907ZM6.54389 15.2308L16.3129 4.24075L13.3232 1.5833L3.55425 12.5734L6.54389 15.2308ZM13.3753 4.29709L25.098 16.5083L27.9836 13.7382L16.2608 1.52696L13.3753 4.29709ZM28.5408 15.1232L28.5408 4.49948L24.5408 4.49948L24.5408 15.1232L28.5408 15.1232ZM3.04907 13.9021L3.04907 25.9912H7.04907L7.04907 13.9021H3.04907Z" fill="black"/>
<path d="M6.80554 11.9131L14.8179 2.91199L26.5407 15.1232L26.5407 4.49945" stroke="black" stroke-width="4" stroke-linecap="square" stroke-linejoin="bevel"/>
<path d="M5.04907 20.6183V28.6777H26.5408V20.6183" stroke="black" stroke-width="4"/>
</svg>
