<svg width="33" height="34" viewBox="0 0 33 34" fill="none" xmlns="http://www.w3.org/2000/svg">
<g clip-path="url(#clip0_72_4376)">
<path d="M7.74508 26.0192L19.1363 25.6045C25.1842 25.6045 29.4177 21.2722 29.4177 15.928C29.4177 10.5838 25.0853 5.64664 19.7411 5.64664C14.7413 5.64664 10.6271 8.82276 9.12717 13.6893L7.74508 26.0192Z" fill="#FF00B8"/>
<path d="M19.1363 25.6045V24.025L19.0789 24.0261L19.1363 25.6045ZM7.74508 26.0192L6.17543 25.8432L7.80254 27.5976L7.74508 26.0192ZM9.13082 13.6567L10.7005 13.8326L7.83606 12.752L9.13082 13.6567ZM1.75089 21.4615L0.846259 22.7563L3.43579 24.5655L4.34042 23.2708L1.75089 21.4615ZM19.0789 24.0261L7.68763 24.4407L7.80254 27.5976L19.1938 27.183L19.0789 24.0261ZM9.31474 26.1951L10.6968 13.8652L7.55751 13.5133L6.17543 25.8432L9.31474 26.1951ZM10.6968 13.8652L10.7005 13.8326L7.56117 13.4807L7.55751 13.5133L10.6968 13.8652ZM7.83606 12.752L1.75089 21.4615L4.34042 23.2708L10.4256 14.5613L7.83606 12.752ZM10.3969 15.061C10.4657 14.7512 10.5458 14.4489 10.6366 14.1545L7.61775 13.2241C7.50187 13.6 7.40017 13.9841 7.31314 14.3758L10.3969 15.061ZM10.6366 14.1545C11.9441 9.91233 15.4734 7.22612 19.7411 7.22612V4.06715C14.0092 4.06715 9.31012 7.7332 7.61775 13.2241L10.6366 14.1545ZM19.7411 7.22612C24.0924 7.22612 27.8382 11.3304 27.8382 15.928H30.9972C30.9972 9.83713 26.0783 4.06715 19.7411 4.06715V7.22612ZM27.8382 15.928C27.8382 20.3475 24.3652 24.025 19.1363 24.025V27.184C26.0032 27.184 30.9972 22.1969 30.9972 15.928H27.8382Z" fill="#FF00B8"/>
<path d="M17.9529 25.6204L7.5317 26.021L8.87053 14.0771L2.99138 22.4917" stroke="black" stroke-width="3.15897" stroke-linecap="square" stroke-linejoin="bevel"/>
</g>
<defs>
<clipPath id="clip0_72_4376">
<rect width="31.5897" height="32.6427" fill="white" transform="translate(0.769043 0.64267)"/>
</clipPath>
</defs>
</svg>
