<svg width="30" height="30" viewBox="0 0 30 30" fill="none" xmlns="http://www.w3.org/2000/svg">
<path d="M24.6443 6.50186L16.3978 17.4392L12.2312 12.231L12.2312 17.96" stroke="#FF00B8" stroke-width="3" stroke-linecap="square" stroke-linejoin="bevel"/>
<path fill-rule="evenodd" clip-rule="evenodd" d="M15.0001 25.4078C20.7482 25.4078 25.4079 20.7481 25.4079 15H22.6389C22.6389 19.2188 19.2189 22.6388 15.0001 22.6388C10.7813 22.6388 7.36134 19.2188 7.36134 15C7.36134 10.7812 10.7813 7.36122 15.0001 7.36122C16.54 7.36122 17.9735 7.81689 19.1731 8.60074L20.8247 6.37334C19.1625 5.24887 17.158 4.59216 15.0001 4.59216C9.25203 4.59216 4.59229 9.2519 4.59229 15C4.59229 20.7481 9.25203 25.4078 15.0001 25.4078Z" fill="black"/>
</svg>
