<svg width="32" height="34" viewBox="0 0 32 34" fill="none" xmlns="http://www.w3.org/2000/svg">
<rect width="31.5897" height="32.6427" transform="translate(0.179443 0.64267)" fill="#FF00B8"/>
<path d="M26.1296 7.48904L17.4461 19.006L13.0587 13.5217L13.0587 19.5544" stroke="black" stroke-width="3.15897" stroke-linecap="square" stroke-linejoin="bevel"/>
<path fill-rule="evenodd" clip-rule="evenodd" d="M15.9743 27.3968C22.027 27.3968 26.9337 22.4902 26.9337 16.4375H24.0179C24.0179 20.8798 20.4167 24.4811 15.9743 24.4811C11.532 24.4811 7.9308 20.8798 7.9308 16.4375C7.9308 11.9952 11.532 8.39397 15.9743 8.39397C17.5959 8.39397 19.1053 8.87378 20.3685 9.69918L22.1076 7.35374C20.3573 6.16969 18.2466 5.47818 15.9743 5.47818C9.92167 5.47818 5.01501 10.3848 5.01501 16.4375C5.01501 22.4902 9.92167 27.3968 15.9743 27.3968Z" fill="black"/>
</svg>
